<?xml version="1.0" encoding="UTF-8" standalone="no"?>
<svg
   version="1.1"
   id="xqr"
   x="0"
   y="0"
   viewBox="0 0 125 92"
   xml:space="preserve"
   sodipodi:docname="xqr.svg"
   inkscape:version="1.1.1 (3bf5ae0d25, 2021-09-20, custom)"
   xmlns:inkscape="http://www.inkscape.org/namespaces/inkscape"
   xmlns:sodipodi="http://sodipodi.sourceforge.net/DTD/sodipodi-0.dtd"
   xmlns="http://www.w3.org/2000/svg"
   xmlns:svg="http://www.w3.org/2000/svg"><defs
     id="defs7" /><sodipodi:namedview
     id="namedview5"
     pagecolor="#ffffff"
     bordercolor="#666666"
     borderopacity="1.0"
     inkscape:pageshadow="2"
     inkscape:pageopacity="0.0"
     inkscape:pagecheckerboard="0"
     showgrid="false"
     inkscape:zoom="9.3695652"
     inkscape:cx="28.283063"
     inkscape:cy="45.946636"
     inkscape:window-width="1280"
     inkscape:window-height="1045"
     inkscape:window-x="0"
     inkscape:window-y="0"
     inkscape:window-maximized="1"
     inkscape:current-layer="xqr" /><path
     fill="currentColor"
     d="M111.933 90.902c-1.11-.605-38.723-29.143-41.345-31.26-3.328-2.622-1.008-7.06-1.008-7.06L120 89.895c-2.118 2.117-5.445 2.622-8.067 1.008v-.001zM19.663 46.23c0-4.639.707-9.277 2.119-13.714C22.79 29.188 28.739 23.137 0 .146 5.849 4.28 30.655 23.137 32.269 24.348c1.613 1.21.907 2.52.202 3.831-9.984 18.05-3.429 40.74 14.52 50.723a37.228 37.228 0 0 0 37.11-.504c1.31-.807 2.924-2.924.605-5.647 1.512 1.31 7.462 5.647 8.47 6.454.706.605.908 1.613.303 2.42l-.303.302c-19.663 15.53-48.201 12.202-63.73-7.462-6.253-8.168-9.782-18.05-9.782-28.235h-.001zm77.144 24.504c-1.916-1.613-.807-3.63-.202-4.538 10.992-17.445 5.849-40.437-11.597-51.428-15.63-9.883-36-6.857-48.1 7.059-.807 1.008-.605 2.621.403 3.529-1.714-1.311-6.454-4.538-7.059-5.042s-1.714-1.008-.807-2.118C37.412 7.406 50.622.852 65.143.852c25.11 0 45.378 20.269 45.378 45.378.1 5.546-.908 10.992-2.924 16.235C102.655 74.062 120 87.877 120 87.877s-21.277-15.53-23.193-17.143zm-58.488-44.47c2.118-2.118 5.446-2.521 8.068-1.009 1.109.605 41.848 32.269 44.571 34.286 3.328 2.622 1.008 7.059 1.008 7.059L38.32 26.264h-.001z"
     id="path2"
     style="fill:#169c8f;fill-opacity:1" /></svg>
